<svg width="26.108337" height="23.941666" viewBox="0 0 26.1083 23.9417" fill="none" xmlns="http://www.w3.org/2000/svg" xmlns:xlink="http://www.w3.org/1999/xlink">
	<desc>
			Created with Pixso.
	</desc>
	<defs/>
	<path id="Vector" d="M23.9417 0L2.05835 0C0.866638 0 0 0.866665 0 2.05833L0 2.38333C0 3.46667 0.866638 4.33333 2.05835 4.33333L24.05 4.33333C25.1334 4.33333 26.1083 3.46667 26.1083 2.275L26.1083 2.05833C26 0.866665 25.1334 0 23.9417 0Z" fill="#FFFFFF" fill-opacity="1.000000" fill-rule="nonzero"/>
	<path id="Vector" d="M23.9417 9.75L2.05835 9.75C0.866638 9.75 0 10.725 0 11.8083L0 12.1333C0 13.2167 0.866638 14.1917 2.05835 14.1917L24.05 14.1917C25.1334 14.1917 26.1083 13.325 26.1083 12.1333L26.1083 11.8083C26 10.725 25.1334 9.75 23.9417 9.75Z" fill="#FFFFFF" fill-opacity="1.000000" fill-rule="nonzero"/>
	<path id="Vector" d="M23.9417 19.5L2.05835 19.5C0.974976 19.5 0 20.3667 0 21.5583L0 21.8833C0 22.9667 0.866638 23.9417 2.05835 23.9417L24.05 23.9417C25.1334 23.9417 26.1083 23.075 26.1083 21.8833L26.1083 21.5583C26 20.475 25.1334 19.5 23.9417 19.5Z" fill="#FFFFFF" fill-opacity="1.000000" fill-rule="nonzero"/>
</svg>
