<svg width="38" height="38" viewBox="0 0 38 38" fill="none" xmlns="http://www.w3.org/2000/svg">
<g clip-path="url(#clip0_142_888)">
<path d="M18.2132 0.326128L11.5439 6.99543C11.1091 7.43012 11.1091 8.13505 11.5439 8.56983L14.693 11.7189C14.9565 11.9824 15.3191 12.0865 15.6606 12.0304V15.6602H12.0307C12.088 15.3124 11.9769 14.9502 11.7194 14.6927L8.57027 11.5436C8.13587 11.1091 7.43056 11.1088 6.99586 11.5436L0.326568 18.2128C-0.108205 18.6475 -0.108205 19.3525 0.326568 19.7873L6.99586 26.4566C7.43027 26.891 8.13557 26.8913 8.57027 26.4566L11.7194 23.3074C11.9771 23.0497 12.0879 22.6874 12.0307 22.3399H15.6605V25.9697C15.3191 25.9136 14.9563 26.0177 14.6929 26.2811L11.5438 29.4302C11.1091 29.8649 11.1091 30.5698 11.5438 31.0046L18.2131 37.6739C18.6479 38.1087 19.3528 38.1087 19.7875 37.6739L26.4568 31.0046C26.8912 30.5701 26.8916 29.8649 26.4568 29.4302L23.3077 26.2811C23.0443 26.0177 22.6816 25.9136 22.3402 25.9697V22.3399H25.9701C25.9128 22.6878 26.0239 23.05 26.2815 23.3074L29.4306 26.4566C29.865 26.8911 30.5703 26.8914 31.005 26.4566L37.6743 19.7873C38.109 19.3526 38.109 18.6477 37.6743 18.2129L31.005 11.5436C30.5706 11.1091 29.8653 11.1089 29.4306 11.5436L26.2815 14.6928C26.0237 14.9505 25.9129 15.3128 25.9701 15.6603H22.3402V12.0305C22.6816 12.0865 23.0443 11.9825 23.3077 11.7191L26.4568 8.56998C26.8914 8.1355 26.8915 7.43035 26.4568 6.99557L19.7875 0.326276C19.3528 -0.108571 18.6479 -0.108571 18.2132 0.326128ZM22.5206 9.35736L22.0142 8.85097C21.3157 8.15235 20.1137 8.64694 20.1137 9.63813V16.7735C20.1137 17.3884 20.6121 17.8868 21.2269 17.8868H28.3623C29.3507 17.8868 29.8502 16.687 29.1495 15.9864L28.6431 15.48L30.2178 13.9052L35.3127 19.0001L30.2179 24.0951L28.6432 22.5203L29.1496 22.0139C29.8484 21.315 29.3532 20.1134 28.3623 20.1134H21.2269C20.6121 20.1134 20.1137 20.6118 20.1137 21.2267V28.362C20.1137 29.3538 21.3162 29.8474 22.0141 29.1492L22.5205 28.6428L24.0952 30.2175L19.0004 35.3124L13.9056 30.2174L15.4802 28.6427L15.9867 29.1491C16.6853 29.848 17.8871 29.3529 17.8871 28.362V21.2267C17.8871 20.6118 17.3886 20.1134 16.7738 20.1134H9.63842C8.65005 20.1134 8.15056 21.3132 8.85126 22.0138L9.35765 22.5202L7.78295 24.095L2.68806 19.0001L7.78288 13.9051L9.35758 15.4799L8.85118 15.9863C8.15234 16.6852 8.64753 17.8868 9.63842 17.8868H16.7738C17.3886 17.8868 17.8871 17.3884 17.8871 16.7735V9.63813C17.8871 8.65021 16.6874 8.1502 15.9867 8.85097L15.4802 9.35736L13.9056 7.78266L19.0004 2.68769L24.0952 7.78266L22.5206 9.35736Z" fill="white"/>
</g>
<defs>
<clipPath id="clip0_142_888">
<rect width="38" height="38" fill="white"/>
</clipPath>
</defs>
</svg>
