<svg width="0" height="0" class="hidden">
  <symbol xmlns="http://www.w3.org/2000/svg" viewBox="0 0 20 20" id="fecebook-icon">
    <path d="M20 18.91c0 .6-.49 1.09-1.09 1.09h-5.123v-7.738h2.616l.382-2.998h-2.998V7.357c0-.872.218-1.471 1.472-1.471h1.58V3.16c-.272-.055-1.199-.11-2.343-.11-2.289 0-3.87 1.418-3.87 3.979v2.234H8.012v2.998h2.616V20H1.09C.49 20 0 19.51 0 18.91V1.09C0 .49.49 0 1.09 0h17.82c.6 0 1.09.49 1.09 1.09v17.82Z"></path>
  </symbol>
  <symbol xmlns="http://www.w3.org/2000/svg" viewBox="0 0 20 20" id="instagram-icon">
    <path d="M17.602 0H2.398C1.09 0 0 1.035 0 2.343v15.314C0 18.965 1.09 20 2.398 20h15.204C18.91 20 20 18.965 20 17.657V2.343C20 1.035 18.91 0 17.602 0Zm-3.215 3.106c0-.327.272-.6.6-.6h1.907c.327 0 .6.273.6.6V4.96c0 .327-.273.6-.6.6H15.04a.605.605 0 0 1-.6-.6l-.054-1.853Zm-4.36 3.052c2.126 0 3.87 1.69 3.87 3.815s-1.744 3.814-3.87 3.814c-2.125 0-3.869-1.689-3.869-3.814 0-2.071 1.744-3.815 3.87-3.815Zm8.066 11.335c0 .327-.273.6-.6.6H2.507a.605.605 0 0 1-.6-.6V8.12H4.36c-.327.49-.436 1.362-.436 1.907 0 3.325 2.725 6.05 6.103 6.05 3.379 0 6.104-2.726 6.104-6.05 0-.545-.055-1.417-.49-1.907h2.506l-.054 9.373Z"></path>
  </symbol>
  <symbol xmlns="http://www.w3.org/2000/svg" viewBox="0 0 20 18" id="twitter-icon">
    <path d="M19.455 1.016c-.817.49-1.69.818-2.616 1.036A4.032 4.032 0 0 0 13.842.744c-2.289 0-4.087 1.907-4.087 4.196 0 .327.054.654.109.98-3.433-.217-6.43-1.907-8.447-4.468a4.555 4.555 0 0 0-.545 2.125c0 1.472.708 2.725 1.853 3.488-.654 0-1.308-.218-1.853-.545v.11c0 2.016 1.417 3.76 3.27 4.14a3.514 3.514 0 0 1-1.09.164c-.273 0-.545 0-.763-.054.545 1.69 2.016 2.888 3.815 2.943A8.03 8.03 0 0 1 .98 15.62c-.327 0-.654 0-.981-.055a11.33 11.33 0 0 0 6.267 1.908c7.575 0 11.662-6.43 11.662-11.99V4.94c.818-.6 1.526-1.308 2.071-2.18-.708.327-1.526.545-2.343.654.817-.6 1.471-1.417 1.798-2.398Z"></path>
  </symbol>
  <symbol xmlns="http://www.w3.org/2000/svg" viewBox="0 0 20 12" id="vk-icon">
    <path d="M19.891 10.605c0-.055-.054-.11-.054-.11-.328-.599-1.036-1.416-2.017-2.288-.436-.436-.708-.708-.817-.872-.218-.272-.273-.545-.164-.817.11-.218.382-.654.927-1.363.272-.381.49-.654.654-.872 1.198-1.58 1.743-2.615 1.58-3.051l-.055-.11C19.892.96 19.782.906 19.62.85c-.164-.054-.382-.054-.654 0h-3.216c-.109 0-.109.055-.109.055h-.054l-.055.054c-.054 0-.054.055-.109.11-.054.054-.054.108-.109.163a23.35 23.35 0 0 1-1.09 2.343c-.272.436-.49.817-.708 1.144-.218.327-.382.545-.545.709l-.381.381c-.11.11-.218.11-.273.11-.054 0-.109-.055-.163-.055-.11-.055-.164-.164-.218-.273-.055-.109-.11-.218-.11-.381 0-.164-.054-.327-.054-.436V1.667c0-.217 0-.38-.054-.49 0-.109-.055-.218-.11-.327-.054-.109-.108-.218-.217-.272l-.327-.164C10.68.305 10.245.305 9.646.305 8.338.305 7.52.36 7.139.578c-.164.054-.273.163-.382.327-.108.163-.163.218-.054.272.436.055.708.218.872.436l.054.11c.055.108.11.272.164.49.054.218.054.49.109.762.054.49.054.927 0 1.308-.055.382-.055.654-.11.818-.054.218-.054.381-.163.49l-.109.218c0 .055-.054.055-.054.055-.109.054-.164.054-.273.054-.109 0-.218-.054-.327-.163-.163-.11-.272-.218-.435-.382a2.641 2.641 0 0 1-.49-.708c-.164-.327-.382-.654-.6-1.09l-.164-.327c-.109-.218-.272-.49-.436-.872-.163-.381-.327-.708-.49-1.09-.055-.109-.164-.218-.273-.327h-.054C3.869.905 3.814.905 3.76.85c-.054 0-.163-.054-.218-.054H.708c-.327 0-.545.109-.654.218v.054C0 1.123 0 1.178 0 1.232c0 .054 0 .163.054.272.436.981.872 1.907 1.363 2.834.49.926.926 1.635 1.253 2.18.382.545.709 1.09 1.09 1.58.382.49.6.818.763.927.11.163.218.217.273.326l.272.273c.164.163.436.381.709.6.327.217.654.435 1.09.708.381.218.871.436 1.362.545.545.163 1.035.218 1.526.163h1.199a.832.832 0 0 0 .545-.218l.054-.054c.055-.055.055-.11.055-.218 0-.11.054-.164.054-.273 0-.272 0-.545.055-.817.054-.218.109-.436.163-.545.055-.109.164-.218.218-.327.11-.109.164-.109.164-.163.054 0 .054-.055.109-.055.163-.054.381 0 .599.164.218.163.436.381.654.599.218.218.436.49.708.817.273.273.545.545.709.654l.218.11c.163.108.327.163.545.217.218.055.436.11.6.055l2.67-.055c.272 0 .49-.054.599-.109.164-.109.218-.163.273-.272.054-.11.054-.218 0-.382 0 0 0-.109-.055-.163Z"></path>
  </symbol>
</svg>